<?xml version="1.0" encoding="us-ascii" standalone="no"?><svg xmlns="http://www.w3.org/2000/svg" xmlns:xlink="http://www.w3.org/1999/xlink" contentStyleType="text/css" height="447px" preserveAspectRatio="none" style="width:547px;height:447px;background:#FFFFFF;" version="1.1" viewBox="0 0 547 447" width="547px" zoomAndPan="magnify"><defs/><g><!--class Users--><g id="elem_Users"><rect codeLine="6" fill="#F0F0F0" height="178.375" id="Users" rx="2.5" ry="2.5" style="stroke:#333333;stroke-width:1.0;" width="226" x="173.5" y="7"/><ellipse cx="266.25" cy="23" fill="#ADD1B2" rx="11" ry="11" style="stroke:#181818;stroke-width:1.0;"/><path d="M262.6094,29.5 L262.6094,17.3594 L270.2656,17.3594 L270.2656,19.4844 L264.9844,19.4844 L264.9844,22.1406 L270,22.1406 L270,24.2656 L264.9844,24.2656 L264.9844,27.375 L270.2656,27.375 L270.2656,29.5 L262.6094,29.5 Z " fill="#000000"/><text fill="#000000" font-family="sans-serif" font-size="14" lengthAdjust="spacing" textLength="32" x="286.75" y="27.8467">User</text><line style="stroke:#333333;stroke-width:1.0;" x1="174.5" x2="398.5" y1="39" y2="39"/><ellipse cx="184.5" cy="52.6484" fill="none" rx="3" ry="3" style="stroke:#038048;stroke-width:1.0;"/><text fill="#000000" font-family="sans-serif" font-size="14" lengthAdjust="spacing" textLength="200" x="193.5" y="55.9951">userId: number &#171;generated&#187;</text><line style="stroke:#333333;stroke-width:1.0;" x1="174.5" x2="398.5" y1="63.2969" y2="63.2969"/><ellipse cx="184.5" cy="76.9453" fill="none" rx="3" ry="3" style="stroke:#038048;stroke-width:1.0;"/><text fill="#000000" font-family="sans-serif" font-size="14" lengthAdjust="spacing" textLength="119" x="193.5" y="80.292">username: String</text><ellipse cx="184.5" cy="93.2422" fill="none" rx="3" ry="3" style="stroke:#038048;stroke-width:1.0;"/><text fill="#000000" font-family="sans-serif" font-size="14" lengthAdjust="spacing" textLength="85" x="193.5" y="96.5889">email: String</text><ellipse cx="184.5" cy="109.5391" fill="none" rx="3" ry="3" style="stroke:#038048;stroke-width:1.0;"/><text fill="#000000" font-family="sans-serif" font-size="14" lengthAdjust="spacing" textLength="116" x="193.5" y="112.8857">password: String</text><ellipse cx="184.5" cy="125.8359" fill="none" rx="3" ry="3" style="stroke:#038048;stroke-width:1.0;"/><text fill="#000000" font-family="sans-serif" font-size="14" lengthAdjust="spacing" textLength="155" x="193.5" y="129.1826">phone_number: String</text><ellipse cx="184.5" cy="142.1328" fill="none" rx="3" ry="3" style="stroke:#038048;stroke-width:1.0;"/><text fill="#000000" font-family="sans-serif" font-size="14" lengthAdjust="spacing" textLength="164" x="193.5" y="145.4795">profile_image_url: String</text><ellipse cx="184.5" cy="158.4297" fill="none" rx="3" ry="3" style="stroke:#038048;stroke-width:1.0;"/><text fill="#000000" font-family="sans-serif" font-size="14" lengthAdjust="spacing" textLength="149" x="193.5" y="161.7764">created_at: DateTime</text><ellipse cx="184.5" cy="174.7266" fill="none" rx="3" ry="3" style="stroke:#038048;stroke-width:1.0;"/><text fill="#000000" font-family="sans-serif" font-size="14" lengthAdjust="spacing" textLength="154" x="193.5" y="178.0732">updated_at: DateTime</text></g><!--class Markers--><g id="elem_Markers"><rect codeLine="17" fill="#F0F0F0" height="178.375" id="Markers" rx="2.5" ry="2.5" style="stroke:#333333;stroke-width:1.0;" width="249" x="7" y="262"/><ellipse cx="103.75" cy="278" fill="#ADD1B2" rx="11" ry="11" style="stroke:#181818;stroke-width:1.0;"/><path d="M100.1094,284.5 L100.1094,272.3594 L107.7656,272.3594 L107.7656,274.4844 L102.4844,274.4844 L102.4844,277.1406 L107.5,277.1406 L107.5,279.2656 L102.4844,279.2656 L102.4844,282.375 L107.7656,282.375 L107.7656,284.5 L100.1094,284.5 Z " fill="#000000"/><text fill="#000000" font-family="sans-serif" font-size="14" lengthAdjust="spacing" textLength="47" x="124.25" y="282.8467">Marker</text><line style="stroke:#333333;stroke-width:1.0;" x1="8" x2="255" y1="294" y2="294"/><ellipse cx="18" cy="307.6484" fill="none" rx="3" ry="3" style="stroke:#038048;stroke-width:1.0;"/><text fill="#000000" font-family="sans-serif" font-size="14" lengthAdjust="spacing" textLength="223" x="27" y="310.9951">locationId: number &#171;generated&#187;</text><ellipse cx="18" cy="323.9453" fill="none" rx="3" ry="3" style="stroke:#038048;stroke-width:1.0;"/><text fill="#000000" font-family="sans-serif" font-size="14" lengthAdjust="spacing" textLength="145" x="27" y="327.292">userId: number &#171;FK&#187;</text><line style="stroke:#333333;stroke-width:1.0;" x1="8" x2="255" y1="334.5938" y2="334.5938"/><ellipse cx="18" cy="348.2422" fill="none" rx="3" ry="3" style="stroke:#038048;stroke-width:1.0;"/><text fill="#000000" font-family="sans-serif" font-size="14" lengthAdjust="spacing" textLength="88" x="27" y="351.5889">name: String</text><ellipse cx="18" cy="364.5391" fill="none" rx="3" ry="3" style="stroke:#038048;stroke-width:1.0;"/><text fill="#000000" font-family="sans-serif" font-size="14" lengthAdjust="spacing" textLength="126" x="27" y="367.8857">description: String</text><ellipse cx="18" cy="380.8359" fill="none" rx="3" ry="3" style="stroke:#038048;stroke-width:1.0;"/><text fill="#000000" font-family="sans-serif" font-size="14" lengthAdjust="spacing" textLength="93" x="27" y="384.1826">latitude: Float</text><ellipse cx="18" cy="397.1328" fill="none" rx="3" ry="3" style="stroke:#038048;stroke-width:1.0;"/><text fill="#000000" font-family="sans-serif" font-size="14" lengthAdjust="spacing" textLength="107" x="27" y="400.4795">longitude: Float</text><ellipse cx="18" cy="413.4297" fill="none" rx="3" ry="3" style="stroke:#038048;stroke-width:1.0;"/><text fill="#000000" font-family="sans-serif" font-size="14" lengthAdjust="spacing" textLength="149" x="27" y="416.7764">created_at: DateTime</text><ellipse cx="18" cy="429.7266" fill="none" rx="3" ry="3" style="stroke:#038048;stroke-width:1.0;"/><text fill="#000000" font-family="sans-serif" font-size="14" lengthAdjust="spacing" textLength="154" x="27" y="433.0732">updated_at: DateTime</text></g><!--class MediaFiles--><g id="elem_MediaFiles"><rect codeLine="28" fill="#F0F0F0" height="162.0781" id="MediaFiles" rx="2.5" ry="2.5" style="stroke:#333333;stroke-width:1.0;" width="194" x="346.5" y="270"/><ellipse cx="407.25" cy="286" fill="#ADD1B2" rx="11" ry="11" style="stroke:#181818;stroke-width:1.0;"/><path d="M403.6094,292.5 L403.6094,280.3594 L411.2656,280.3594 L411.2656,282.4844 L405.9844,282.4844 L405.9844,285.1406 L411,285.1406 L411,287.2656 L405.9844,287.2656 L405.9844,290.375 L411.2656,290.375 L411.2656,292.5 L403.6094,292.5 Z " fill="#000000"/><text fill="#000000" font-family="sans-serif" font-size="14" lengthAdjust="spacing" textLength="64" x="427.75" y="290.8467">MediaFile</text><line style="stroke:#333333;stroke-width:1.0;" x1="347.5" x2="539.5" y1="302" y2="302"/><ellipse cx="357.5" cy="315.6484" fill="none" rx="3" ry="3" style="stroke:#038048;stroke-width:1.0;"/><text fill="#000000" font-family="sans-serif" font-size="14" lengthAdjust="spacing" textLength="153" x="366.5" y="318.9951">mediaId: &#171;generated&#187;</text><ellipse cx="357.5" cy="331.9453" fill="none" rx="3" ry="3" style="stroke:#038048;stroke-width:1.0;"/><text fill="#000000" font-family="sans-serif" font-size="14" lengthAdjust="spacing" textLength="168" x="366.5" y="335.292">locationId: number &#171;FK&#187;</text><ellipse cx="357.5" cy="348.2422" fill="none" rx="3" ry="3" style="stroke:#038048;stroke-width:1.0;"/><text fill="#000000" font-family="sans-serif" font-size="14" lengthAdjust="spacing" textLength="145" x="366.5" y="351.5889">userId: number &#171;FK&#187;</text><line style="stroke:#333333;stroke-width:1.0;" x1="347.5" x2="539.5" y1="358.8906" y2="358.8906"/><ellipse cx="357.5" cy="372.5391" fill="none" rx="3" ry="3" style="stroke:#038048;stroke-width:1.0;"/><text fill="#000000" font-family="sans-serif" font-size="14" lengthAdjust="spacing" textLength="125" x="366.5" y="375.8857">mediaType: String</text><ellipse cx="357.5" cy="388.8359" fill="none" rx="3" ry="3" style="stroke:#038048;stroke-width:1.0;"/><text fill="#000000" font-family="sans-serif" font-size="14" lengthAdjust="spacing" textLength="109" x="366.5" y="392.1826">mediaUrl: String</text><ellipse cx="357.5" cy="405.1328" fill="none" rx="3" ry="3" style="stroke:#038048;stroke-width:1.0;"/><text fill="#000000" font-family="sans-serif" font-size="14" lengthAdjust="spacing" textLength="149" x="366.5" y="408.4795">created_at: DateTime</text><ellipse cx="357.5" cy="421.4297" fill="none" rx="3" ry="3" style="stroke:#038048;stroke-width:1.0;"/><text fill="#000000" font-family="sans-serif" font-size="14" lengthAdjust="spacing" textLength="154" x="366.5" y="424.7764">updated_at: DateTime</text></g><!--link Users to Markers--><g id="link_Users_Markers"><path codeLine="38" d="M228.33,191.9511 C213.12,216.7711 210.1751,221.5926 194.9651,246.4126 " fill="none" id="Users-Markers" style="stroke:#181818;stroke-width:1.0;"/><line style="stroke:#181818;stroke-width:1.0;" x1="227.0094" x2="233.8305" y1="186.4505" y2="190.6306"/><line style="stroke:#181818;stroke-width:1.0;" x1="225.4419" x2="232.263" y1="189.0084" y2="193.1885"/><line style="stroke:#181818;stroke-width:1.0;" x1="228.33" x2="232.51" y1="191.9511" y2="185.13"/><line style="stroke:#181818;stroke-width:1.0;" x1="189.74" x2="190.6758" y1="254.9389" y2="264.895"/><line style="stroke:#181818;stroke-width:1.0;" x1="189.74" x2="180.4442" y1="254.9389" y2="258.625"/><line style="stroke:#181818;stroke-width:1.0;" x1="189.74" x2="185.56" y1="254.9389" y2="261.76"/><ellipse cx="192.8751" cy="249.8231" fill="none" rx="4" ry="4" style="stroke:#181818;stroke-width:1.0;"/><text fill="#000000" font-family="sans-serif" font-size="13" lengthAdjust="spacing" textLength="23" x="214.5" y="228.0669">has</text></g><!--link Users to MediaFiles--><g id="link_Users_MediaFiles"><path codeLine="39" d="M345.4076,191.928 C362.4876,219.458 367.518,227.5661 384.238,254.5061 " fill="none" id="Users-MediaFiles" style="stroke:#181818;stroke-width:1.0;"/><line style="stroke:#181818;stroke-width:1.0;" x1="339.8998" x2="346.6978" y1="190.6378" y2="186.4202"/><line style="stroke:#181818;stroke-width:1.0;" x1="341.4814" x2="348.2793" y1="193.187" y2="188.9694"/><line style="stroke:#181818;stroke-width:1.0;" x1="345.4076" x2="341.19" y1="191.928" y2="185.13"/><line style="stroke:#181818;stroke-width:1.0;" x1="389.5113" x2="398.828" y1="263.0027" y2="266.636"/><line style="stroke:#181818;stroke-width:1.0;" x1="389.5113" x2="388.632" y1="263.0027" y2="272.964"/><line style="stroke:#181818;stroke-width:1.0;" x1="389.5113" x2="393.73" y1="263.0027" y2="269.8"/><ellipse cx="386.3474" cy="257.9048" fill="none" rx="4" ry="4" style="stroke:#181818;stroke-width:1.0;"/><text fill="#000000" font-family="sans-serif" font-size="13" lengthAdjust="spacing" textLength="50" x="370.5" y="228.0669">uploads</text></g><!--link Markers to MediaFiles--><g id="link_Markers_MediaFiles"><path codeLine="40" d="M264.16,351 C294.2,351 299.86,351 328.43,351 " fill="none" id="Markers-MediaFiles" style="stroke:#181818;stroke-width:1.0;"/><line style="stroke:#181818;stroke-width:1.0;" x1="260.16" x2="260.16" y1="355" y2="347"/><line style="stroke:#181818;stroke-width:1.0;" x1="263.16" x2="263.16" y1="355" y2="347"/><line style="stroke:#181818;stroke-width:1.0;" x1="264.16" x2="256.16" y1="351" y2="351"/><line style="stroke:#181818;stroke-width:1.0;" x1="338.43" x2="346.43" y1="351" y2="345"/><line style="stroke:#181818;stroke-width:1.0;" x1="338.43" x2="346.43" y1="351" y2="357"/><line style="stroke:#181818;stroke-width:1.0;" x1="338.43" x2="346.43" y1="351" y2="351"/><ellipse cx="332.43" cy="351" fill="none" rx="4" ry="4" style="stroke:#181818;stroke-width:1.0;"/><text fill="#000000" font-family="sans-serif" font-size="13" lengthAdjust="spacing" textLength="54" x="274.25" y="344.0669">contains</text></g><!--SRC=[fLB1IiGm4BtlLuHwb8BYhInxK5aGyUJkkOp9s0rD9cMI8ikk_sxQRbktNKGqlIJllSpCUwalDLN0O8KquBquB4HSzo3BWbrDwi4Pn-Bg_QRvEiwnGZxXT-twXczsMfQ4iTBjudE157JOYsJhaHC1NZIRlibr7GzFAXDKspTaiLmMICWGKArMhI9DHo61nKoy1jPKT2XQqEOSggA5ZpZ71DqvmhphCc7OlMk3kRPGO5xpf9naRAR98MJYCUussk9feahDcT7l2t1vSjnj1y_6IGZQqO- -vycidoUHpEDGw2NhgYb-JfZOCDGgojV6GUZde6AE_jqmAWth66NdkJyDjcs3D8ukcBqOoM3u5rcqnJVxQX982s___QRTBtiyfYfrX-4vCv7im2SZooqx6e-2keh9gYZgBrsMIKS1DFda2m00]--></g></svg>